<?xml version="1.0" encoding="iso-8859-1"?>
<!-- Generator: Adobe Illustrator 26.0.1, SVG Export Plug-In . SVG Version: 6.00 Build 0)  -->
<svg version="1.1" id="Layer_1" xmlns="http://www.w3.org/2000/svg" xmlns:xlink="http://www.w3.org/1999/xlink" x="0px" y="0px"
	 viewBox="0 0 1000 1000" style="enable-background:new 0 0 1000 1000;" xml:space="preserve">
<g id="watermark_1_">
	<g>
		<g id="watermark" style="opacity:0.61;">
			<g>
				<g>
					<g>
						<g>
							<polygon style="fill:#FFFFFF;" points="421.112,924.528 409.007,952.493 402.615,952.493 390.55,924.528 397.541,924.528 
								406.051,944.503 414.68,924.528 							"/>
						</g>
						<g>
							<path style="fill:#FFFFFF;" d="M442.323,943.185h-16.26c0.599,2.677,2.876,4.315,6.153,4.315
								c2.277,0,3.915-0.679,5.393-2.077l3.316,3.595c-1.997,2.278-4.994,3.476-8.868,3.476c-7.431,0-12.265-4.674-12.265-11.067
								c0-6.432,4.914-11.066,11.466-11.066c6.312,0,11.186,4.235,11.186,11.146C442.443,941.987,442.363,942.666,442.323,943.185
								 M425.983,939.55h10.587c-0.44-2.717-2.478-4.475-5.274-4.475C428.46,935.075,426.422,936.793,425.983,939.55"/>
						</g>
						<g>
							<path style="fill:#FFFFFF;" d="M444.997,941.427c0-6.471,4.994-11.066,11.985-11.066c4.514,0,8.07,1.958,9.628,5.473
								l-4.834,2.597c-1.159-2.038-2.877-2.956-4.834-2.956c-3.156,0-5.633,2.198-5.633,5.952c0,3.756,2.477,5.953,5.633,5.953
								c1.958,0,3.675-0.879,4.834-2.956l4.834,2.637c-1.558,3.436-5.114,5.433-9.628,5.433
								C449.991,952.493,444.997,947.899,444.997,941.427"/>
						</g>
						<g>
							<path style="fill:#FFFFFF;" d="M484.386,951.135c-1.279,0.919-3.157,1.358-5.074,1.358c-5.073,0-8.03-2.597-8.03-7.711
								v-8.829h-3.316v-4.794h3.316v-5.233h6.232v5.233h5.353v4.794h-5.353v8.749c0,1.837,0.998,2.836,2.677,2.836
								c0.918,0,1.837-0.279,2.517-0.799L484.386,951.135z"/>
						</g>
					</g>
					<g>
						<path style="fill:#FFFFFF;" d="M527.157,930.68v5.753c-0.519-0.04-0.918-0.08-1.398-0.08c-3.435,0-5.713,1.877-5.713,5.993
							v10.147h-6.232V931h5.953v2.836C521.284,931.759,523.841,930.68,527.157,930.68"/>
					</g>
					<g>
						<path style="fill:#FFFFFF;" d="M528.954,949.257l2.197-4.874c2.357,1.718,5.873,2.916,9.229,2.916
							c3.836,0,5.393-1.278,5.393-2.996c0-5.233-16.26-1.638-16.26-12.025c0-4.754,3.835-8.709,11.785-8.709
							c3.516,0,7.112,0.839,9.708,2.477l-1.998,4.914c-2.597-1.478-5.273-2.197-7.75-2.197c-3.835,0-5.313,1.438-5.313,3.196
							c0,5.154,16.259,1.598,16.259,11.865c0,4.675-3.875,8.67-11.865,8.67C535.905,952.493,531.43,951.175,528.954,949.257"/>
					</g>
					<g>
						<path style="fill:#FFFFFF;" d="M577.131,943.185h-16.26c0.599,2.677,2.876,4.315,6.153,4.315c2.277,0,3.915-0.679,5.393-2.077
							l3.316,3.595c-1.998,2.278-4.994,3.476-8.869,3.476c-7.431,0-12.265-4.674-12.265-11.067c0-6.432,4.914-11.066,11.466-11.066
							c6.312,0,11.187,4.235,11.187,11.146C577.251,941.987,577.171,942.666,577.131,943.185 M560.791,939.55h10.587
							c-0.439-2.717-2.477-4.475-5.273-4.475C563.268,935.075,561.231,936.793,560.791,939.55"/>
					</g>
					<g>
						<path style="fill:#FFFFFF;" d="M602.337,943.185h-16.26c0.599,2.677,2.876,4.315,6.152,4.315c2.277,0,3.915-0.679,5.393-2.077
							l3.316,3.595c-1.998,2.278-4.994,3.476-8.869,3.476c-7.431,0-12.265-4.674-12.265-11.067c0-6.432,4.914-11.066,11.466-11.066
							c6.312,0,11.186,4.235,11.186,11.146C602.457,941.987,602.377,942.666,602.337,943.185 M585.997,939.55h10.587
							c-0.439-2.717-2.477-4.475-5.273-4.475C588.474,935.075,586.437,936.793,585.997,939.55"/>
					</g>
					<g>
						<polygon style="fill:#FFFFFF;" points="615.838,944.064 612.841,947.02 612.841,952.493 606.61,952.493 606.61,922.85 
							612.841,922.85 612.841,939.629 621.95,931 629.381,931 620.432,940.108 630.18,952.493 622.63,952.493 						"/>
					</g>
					<g>
						<path style="fill:#FFFFFF;" d="M514.371,955.416L514.371,955.416l-6.226-6.226c-0.947,1.107-2.075,2.054-3.339,2.796
							c-0.201,0.15-0.406,0.296-0.616,0.433l6.589,6.589c0.992,0.992,2.601,0.992,3.592,0
							C515.363,958.017,515.363,956.408,514.371,955.416"/>
					</g>
					<g>
						<path style="fill:#FFFFFF;" d="M499.965,929.04c0.48-0.377,1.077-0.612,1.735-0.612c0.091,0,0.181,0.005,0.27,0.013
							c-0.466-0.34-1.041-0.542-1.663-0.542c-0.859,0-1.619,0.392-2.137,0.998c-0.111,0-0.218,0.013-0.328,0.016
							c0.086-0.167,0.139-0.354,0.139-0.555c0-0.509-0.311-0.945-0.752-1.13c0.19,0.275,0.301,0.608,0.301,0.968
							c0,0.267-0.066,0.517-0.176,0.742c-6.119,0.437-10.95,5.527-10.95,11.757c0,6.516,5.283,11.799,11.799,11.799
							c6.517,0,11.8-5.283,11.8-11.799C510.004,934.777,505.644,929.892,499.965,929.04 M495.61,932.114
							c0.947,0,1.837,0.244,2.611,0.674c0.813-0.532,1.785-0.842,2.828-0.842c1.547,0,2.934,0.68,3.883,1.756
							c-0.948-0.826-2.186-1.328-3.541-1.328c-0.977,0-1.895,0.261-2.686,0.716c-0.172,0.1-0.34,0.208-0.499,0.326
							c-0.142-0.104-0.29-0.203-0.444-0.292c-0.803-0.476-1.741-0.749-2.743-0.749c-0.653,0-1.279,0.117-1.86,0.331
							C493.895,932.328,494.727,932.114,495.61,932.114 M503.858,941.785c0.25,0.664,0.394,1.38,0.394,2.131
							c0,3.34-2.707,6.047-6.047,6.047c-3.339,0-6.047-2.707-6.047-6.047c0-0.751,0.143-1.467,0.394-2.131
							c-1.35-0.831-2.253-2.317-2.253-4.019c0-2.607,2.114-4.72,4.72-4.72c1.23,0,2.346,0.474,3.186,1.244
							c0.84-0.77,1.956-1.244,3.186-1.244c2.607,0,4.72,2.113,4.72,4.72C506.111,939.467,505.208,940.954,503.858,941.785"/>
					</g>
					<g>
						<path style="fill:#FFFFFF;" d="M503.627,937.351c0,1.082-0.879,1.961-1.961,1.961c-1.082,0-1.961-0.879-1.961-1.961
							s0.879-1.961,1.961-1.961c0.22,0,0.428,0.037,0.625,0.102c-0.065,0.135-0.099,0.287-0.099,0.445
							c0,0.595,0.482,1.076,1.077,1.076c0.11,0,0.217-0.017,0.318-0.048C503.613,937.089,503.627,937.218,503.627,937.351"/>
					</g>
					<g>
						<path style="fill:#FFFFFF;" d="M496.201,937.351c0,0.818-0.665,1.482-1.483,1.482c-0.818,0-1.483-0.664-1.483-1.482
							s0.665-1.483,1.483-1.483c0.166,0,0.324,0.027,0.473,0.077c-0.049,0.102-0.075,0.217-0.075,0.337
							c0,0.449,0.364,0.814,0.814,0.814c0.083,0,0.164-0.013,0.241-0.036C496.191,937.153,496.201,937.251,496.201,937.351"/>
					</g>
					<g>
						<g>
							<g>
								<rect x="484.56" y="939.024" style="fill:#FFFFFF;" width="1.34" height="1.34"/>
							</g>
							<g>
								<rect x="510.51" y="939.024" style="fill:#FFFFFF;" width="1.34" height="1.34"/>
							</g>
							<g>
								<path style="fill:#FFFFFF;" d="M511.332,939.572h-0.304c0-7.07-5.752-12.823-12.823-12.823
									c-7.07,0-12.823,5.753-12.823,12.823h-0.305c0-3.506,1.365-6.803,3.845-9.282c2.479-2.48,5.776-3.845,9.282-3.845
									c3.507,0,6.803,1.365,9.283,3.845C509.966,932.769,511.332,936.065,511.332,939.572"/>
							</g>
						</g>
						<g>
							<rect x="497.534" y="925.927" style="fill:#FFFFFF;" width="1.34" height="1.34"/>
						</g>
						<g>
							<rect x="489.006" y="926.445" style="fill:#FFFFFF;" width="18.397" height="0.304"/>
						</g>
						<g>
							<path style="fill:#FFFFFF;" d="M489.494,926.658c0,0.235-0.191,0.427-0.427,0.427c-0.235,0-0.426-0.191-0.426-0.427
								s0.191-0.427,0.426-0.427C489.303,926.231,489.494,926.422,489.494,926.658"/>
						</g>
						<g>
							<path style="fill:#FFFFFF;" d="M507.829,926.658c0,0.235-0.191,0.427-0.427,0.427c-0.235,0-0.426-0.191-0.426-0.427
								s0.191-0.427,0.426-0.427C507.639,926.231,507.829,926.422,507.829,926.658"/>
						</g>
					</g>
				</g>
				<g>
					<path style="fill:#FFFFFF;" d="M640.109,951.171c0,3.395-5.146,3.395-5.146,0C634.963,947.779,640.109,947.779,640.109,951.171
						z"/>
				</g>
				<g>
					<g>
						<g>
							<path style="fill:#FFFFFF;" d="M307.849,936.236l3.859,13.253l4.038-13.253h4.823l-6.145,17.721h-5.073l-1.822-5.216
								l-1.572-5.896l-1.571,5.896l-1.822,5.216h-5.073l-6.18-17.721h4.858l4.038,13.253l3.822-13.253H307.849z"/>
						</g>
						<g>
							<path style="fill:#FFFFFF;" d="M340.449,936.236l3.859,13.253l4.038-13.253h4.823l-6.145,17.721h-5.073l-1.822-5.216
								l-1.571-5.896l-1.572,5.896l-1.822,5.216h-5.073l-6.18-17.721h4.858l4.038,13.253l3.822-13.253H340.449z"/>
						</g>
						<g>
							<path style="fill:#FFFFFF;" d="M373.048,936.236l3.859,13.253l4.038-13.253h4.823l-6.145,17.721h-5.073l-1.822-5.216
								l-1.572-5.896l-1.571,5.896l-1.822,5.216h-5.073l-6.18-17.721h4.858l4.038,13.253l3.822-13.253H373.048z"/>
						</g>
					</g>
					<g>
						<path style="fill:#FFFFFF;" d="M393.123,951.412c0,3.395-5.146,3.395-5.146,0C387.977,948.02,393.123,948.02,393.123,951.412z
							"/>
					</g>
					<g>
						<path style="fill:#FFFFFF;" d="M658.296,951.171c-2.036,2.001-4.177,2.787-6.787,2.787c-5.108,0-9.361-3.072-9.361-9.323
							c0-6.251,4.253-9.326,9.361-9.326c2.502,0,4.43,0.716,6.359,2.609l-2.752,2.894c-1.036-0.931-2.321-1.393-3.534-1.393
							c-2.929,0-5.073,2.144-5.073,5.216c0,3.357,2.286,5.143,5,5.143c1.393,0,2.787-0.393,3.857-1.463L658.296,951.171z"/>
					</g>
					<g>
						<path style="fill:#FFFFFF;" d="M678.097,944.777c0,5.073-3.465,9.181-9.181,9.181c-5.716,0-9.146-4.107-9.146-9.181
							c0-5.038,3.502-9.181,9.111-9.181S678.097,939.739,678.097,944.777z M664.128,944.777c0,2.679,1.609,5.181,4.788,5.181
							c3.179,0,4.788-2.502,4.788-5.181c0-2.644-1.859-5.216-4.788-5.216C665.772,939.561,664.128,942.133,664.128,944.777z"/>
					</g>
					<g>
						<path style="fill:#FFFFFF;" d="M692.828,953.958v-9.431c0-2.324-1.216-4.43-3.61-4.43c-2.356,0-3.75,2.106-3.75,4.43v9.431
							h-4.36v-17.649h4.038l0.323,2.144c0.928-1.786,2.964-2.429,4.643-2.429c2.109,0,4.218,0.858,5.216,3.287
							c1.574-2.502,3.61-3.217,5.896-3.217c5,0,7.467,3.075,7.467,8.36v9.504h-4.361v-9.504c0-2.321-0.963-4.288-3.322-4.288
							c-2.356,0-3.822,2.036-3.822,4.36v9.431H692.828z"/>
					</g>
				</g>
			</g>
		</g>
		<g style="opacity:0.61;">
			<g>
				<g>
					<path style="fill:#FFFFFF;" d="M708.973,859.493c-0.013-2.665-2.087-4.618-4.766-4.659c-2.011-0.031-1.81,0.261-1.815-1.887
						c-0.006-2.389-0.015-4.778,0.006-7.166c0.007-0.824-0.243-1.505-0.787-2.125c-5.098-5.81-10.184-11.63-15.281-17.441
						c-0.262-0.299-0.599-0.532-0.901-0.796c-13.528,0-27.055,0-40.583,0c-1.729,0.639-2.482,1.889-2.478,3.72
						c0.021,8.159,0.009,16.318,0.008,24.478c0,1.21-0.007,1.281-1.197,1.201c-3.258-0.221-5.477,2.147-5.436,5.426
						c0.096,7.568,0.028,15.137,0.031,22.706c0.001,3.44,1.887,5.32,5.333,5.331c1.267,0.004,1.268,0.004,1.268,1.306
						c0.001,4.831-0.002,9.662,0.002,14.493c0.002,2.595,1.262,3.855,3.85,3.855c17.446,0.001,34.891,0.001,52.337,0
						c2.543,0,3.822-1.268,3.824-3.799c0.005-4.912,0.001-9.823,0.003-14.735c0-1.115,0.005-1.112,1.131-1.121
						c0.589-0.005,1.177,0.017,1.761-0.127c2.169-0.535,3.68-2.273,3.689-4.503C709.007,875.597,709.011,867.545,708.973,859.493z
						 M647.034,828.716c11.619-0.001,23.237-0.001,34.856,0c1.193,0,1.206,0.015,1.207,1.222c0.001,4.884-0.002,9.767,0.002,14.651
						c0.001,1.765,0.543,2.305,2.307,2.306c4.159,0.003,8.318,0,12.477,0.003c0.997,0.001,1.044,0.046,1.046,1.052
						c0.006,1.932,0.005,3.864,0,5.796c-0.003,1.038-0.051,1.085-1.098,1.085c-8.479,0.002-16.958,0.001-25.438,0.001
						c-8.452,0-16.905,0-25.357,0c-1.198,0-1.202-0.003-1.202-1.221c-0.001-7.889-0.001-15.778,0-23.667
						C645.835,828.724,645.844,828.716,647.034,828.716z M697.728,903.645c-8.454,0.001-16.908,0.001-25.362,0.001
						c-8.427,0-16.854,0.001-25.281,0c-1.245,0-1.249-0.003-1.249-1.262c-0.001-4.348-0.003-8.696,0.001-13.043
						c0.001-1.01,0.051-1.059,1.041-1.059c16.989-0.002,33.977-0.002,50.966,0c1.041,0,1.086,0.044,1.087,1.094
						c0.003,4.348,0.003,8.696,0.001,13.043C698.931,903.634,698.92,903.645,697.728,903.645z"/>
				</g>
				<g>
					<g>
						<rect x="668.546" y="828.478" style="fill:#FFFFFF;" width="3.825" height="2.295"/>
					</g>
					<g>
						<rect x="664.722" y="830.773" style="fill:#FFFFFF;" width="3.825" height="2.295"/>
					</g>
					<g>
						<rect x="668.546" y="833.068" style="fill:#FFFFFF;" width="3.825" height="2.295"/>
					</g>
					<g>
						<rect x="664.722" y="835.363" style="fill:#FFFFFF;" width="3.825" height="2.295"/>
					</g>
					<g>
						<rect x="668.546" y="837.658" style="fill:#FFFFFF;" width="3.825" height="2.295"/>
					</g>
					<g>
						<rect x="664.722" y="839.953" style="fill:#FFFFFF;" width="3.825" height="2.295"/>
					</g>
					<g>
						<rect x="668.546" y="842.247" style="fill:#FFFFFF;" width="3.825" height="2.295"/>
					</g>
					<g>
						<rect x="664.722" y="844.542" style="fill:#FFFFFF;" width="3.825" height="2.295"/>
					</g>
					<g>
						<rect x="668.546" y="846.837" style="fill:#FFFFFF;" width="3.825" height="2.295"/>
					</g>
					<g>
						<rect x="664.722" y="849.132" style="fill:#FFFFFF;" width="3.825" height="2.295"/>
					</g>
					<g>
						<rect x="668.546" y="851.427" style="fill:#FFFFFF;" width="3.825" height="2.295"/>
					</g>
					<g>
						<rect x="664.722" y="853.722" style="fill:#FFFFFF;" width="3.825" height="2.295"/>
					</g>
				</g>
			</g>
			<g>
				<path style="fill:#FFFFFF;" d="M364.231,859.493c-0.013-2.665-2.087-4.618-4.766-4.659c-2.011-0.031-1.81,0.261-1.815-1.887
					c-0.006-2.389-0.015-4.778,0.006-7.166c0.007-0.824-0.243-1.505-0.787-2.125c-5.098-5.81-10.184-11.63-15.281-17.441
					c-0.262-0.299-0.599-0.532-0.901-0.796c-13.528,0-27.055,0-40.583,0c-1.729,0.639-2.482,1.889-2.478,3.72
					c0.021,8.159,0.009,16.318,0.008,24.478c0,1.21-0.007,1.281-1.197,1.201c-3.258-0.221-5.477,2.147-5.436,5.426
					c0.096,7.568,0.028,15.137,0.031,22.706c0.001,3.44,1.887,5.32,5.333,5.331c1.267,0.004,1.268,0.004,1.268,1.306
					c0.001,4.831-0.002,9.662,0.002,14.493c0.002,2.595,1.262,3.855,3.85,3.855c17.446,0.001,34.891,0.001,52.337,0
					c2.543,0,3.822-1.268,3.824-3.799c0.005-4.912,0.001-9.823,0.003-14.735c0-1.115,0.004-1.112,1.131-1.121
					c0.589-0.005,1.177,0.017,1.761-0.127c2.169-0.535,3.68-2.273,3.689-4.503C364.264,875.597,364.269,867.545,364.231,859.493z
					 M302.292,828.716c11.619-0.001,23.237-0.001,34.856,0c1.192,0,1.206,0.015,1.207,1.222c0.001,4.884-0.001,9.767,0.002,14.651
					c0.001,1.765,0.543,2.305,2.307,2.306c4.159,0.003,8.318,0,12.477,0.003c0.997,0.001,1.044,0.046,1.046,1.052
					c0.006,1.932,0.005,3.864,0,5.796c-0.003,1.038-0.051,1.085-1.098,1.085c-8.479,0.002-16.958,0.001-25.438,0.001
					c-8.452,0-16.905,0-25.357,0c-1.198,0-1.202-0.003-1.202-1.221c-0.001-7.889-0.001-15.778,0-23.667
					C301.093,828.724,301.102,828.716,302.292,828.716z M352.985,903.645c-8.454,0.001-16.908,0.001-25.362,0.001
					c-8.427,0-16.854,0.001-25.281,0c-1.245,0-1.249-0.003-1.249-1.262c-0.001-4.348-0.003-8.696,0.001-13.043
					c0.001-1.01,0.051-1.059,1.041-1.059c16.989-0.002,33.977-0.002,50.966,0c1.041,0,1.086,0.044,1.087,1.094
					c0.003,4.348,0.003,8.696,0.001,13.043C354.188,903.634,354.177,903.645,352.985,903.645z"/>
			</g>
			<g>
				<path style="fill:#FFFFFF;" d="M303.581,879.891v-17.193h6.051c0.816,0,1.581,0.132,2.293,0.396
					c0.712,0.264,1.333,0.636,1.861,1.117c0.527,0.48,0.944,1.053,1.248,1.717c0.304,0.665,0.456,1.397,0.456,2.198
					c0,0.816-0.152,1.557-0.456,2.221s-0.721,1.236-1.248,1.717c-0.529,0.48-1.149,0.852-1.861,1.117
					c-0.713,0.264-1.477,0.396-2.293,0.396h-2.809v6.315H303.581z M309.68,870.503c0.848,0,1.489-0.241,1.921-0.721
					c0.432-0.48,0.648-1.032,0.648-1.656c0-0.304-0.052-0.601-0.156-0.889c-0.105-0.288-0.264-0.54-0.48-0.756
					c-0.216-0.217-0.484-0.388-0.805-0.516c-0.32-0.129-0.696-0.193-1.128-0.193h-2.857v4.731H309.68z"/>
				<path style="fill:#FFFFFF;" d="M317.796,862.699h3.77l6.916,11.526h0.191l-0.191-3.314v-8.212h3.217v17.193h-3.409l-7.3-12.174
					h-0.191l0.191,3.314v8.86h-3.193V862.699z"/>
				<path style="fill:#FFFFFF;" d="M343.08,870.454h8.429c0.048,0.193,0.087,0.425,0.12,0.697c0.031,0.272,0.048,0.544,0.048,0.816
					c0,1.104-0.167,2.145-0.504,3.121c-0.336,0.977-0.865,1.849-1.585,2.618c-0.768,0.817-1.69,1.449-2.761,1.897
					c-1.073,0.448-2.298,0.672-3.674,0.672c-1.249,0-2.426-0.224-3.53-0.672c-1.104-0.447-2.065-1.072-2.881-1.873
					c-0.816-0.8-1.465-1.749-1.945-2.845c-0.48-1.097-0.72-2.293-0.72-3.59c0-1.296,0.24-2.493,0.72-3.589s1.129-2.045,1.945-2.845
					c0.816-0.8,1.777-1.425,2.881-1.873c1.104-0.448,2.281-0.672,3.53-0.672c1.392,0,2.637,0.24,3.734,0.72
					c1.097,0.48,2.036,1.144,2.821,1.993l-2.232,2.185c-0.562-0.592-1.185-1.044-1.874-1.357s-1.513-0.468-2.473-0.468
					c-0.786,0-1.53,0.14-2.234,0.421c-0.705,0.28-1.321,0.676-1.85,1.188c-0.527,0.512-0.949,1.133-1.259,1.861
					c-0.312,0.728-0.469,1.541-0.469,2.437c0,0.897,0.157,1.709,0.469,2.438c0.311,0.728,0.735,1.349,1.271,1.861
					c0.536,0.512,1.156,0.909,1.862,1.188c0.704,0.281,1.457,0.421,2.258,0.421c0.911,0,1.684-0.132,2.317-0.396
					c0.632-0.264,1.171-0.604,1.62-1.021c0.321-0.288,0.598-0.652,0.829-1.092s0.412-0.932,0.541-1.477h-5.404V870.454z"/>
			</g>
			<g>
				<path style="fill:#FFFFFF;" d="M443.437,859.493c-0.013-2.665-2.087-4.618-4.766-4.659c-2.011-0.031-1.81,0.261-1.815-1.887
					c-0.006-2.389-0.015-4.778,0.006-7.166c0.007-0.824-0.243-1.505-0.787-2.125c-5.098-5.81-10.184-11.63-15.281-17.441
					c-0.262-0.299-0.599-0.532-0.901-0.796c-13.528,0-27.055,0-40.583,0c-1.729,0.639-2.482,1.889-2.478,3.72
					c0.021,8.159,0.009,16.318,0.008,24.478c0,1.21-0.007,1.281-1.197,1.201c-3.258-0.221-5.477,2.147-5.436,5.426
					c0.096,7.568,0.028,15.137,0.031,22.706c0.001,3.44,1.887,5.32,5.333,5.331c1.267,0.004,1.268,0.004,1.268,1.306
					c0.001,4.831-0.002,9.662,0.002,14.493c0.002,2.595,1.262,3.855,3.85,3.855c17.446,0.001,34.891,0.001,52.337,0
					c2.543,0,3.822-1.268,3.824-3.799c0.005-4.912,0.001-9.823,0.003-14.735c0-1.115,0.004-1.112,1.131-1.121
					c0.589-0.005,1.177,0.017,1.761-0.127c2.169-0.535,3.68-2.273,3.689-4.503C443.47,875.597,443.475,867.545,443.437,859.493z
					 M381.498,828.716c11.619-0.001,23.237-0.001,34.856,0c1.192,0,1.206,0.015,1.207,1.222c0.001,4.884-0.001,9.767,0.002,14.651
					c0.001,1.765,0.543,2.305,2.307,2.306c4.159,0.003,8.318,0,12.477,0.003c0.997,0.001,1.044,0.046,1.046,1.052
					c0.006,1.932,0.005,3.864,0,5.796c-0.003,1.038-0.051,1.085-1.098,1.085c-8.479,0.002-16.958,0.001-25.438,0.001
					c-8.452,0-16.905,0-25.357,0c-1.198,0-1.202-0.003-1.202-1.221c-0.001-7.889-0.001-15.778,0-23.667
					C380.299,828.724,380.308,828.716,381.498,828.716z M432.192,903.645c-8.454,0.001-16.908,0.001-25.362,0.001
					c-8.427,0-16.854,0.001-25.281,0c-1.245,0-1.249-0.003-1.249-1.262c-0.001-4.348-0.002-8.696,0.001-13.043
					c0.001-1.01,0.051-1.059,1.041-1.059c16.989-0.002,33.977-0.002,50.966,0c1.041,0,1.086,0.044,1.087,1.094
					c0.003,4.348,0.003,8.696,0.001,13.043C433.394,903.634,433.384,903.645,432.192,903.645z"/>
			</g>
			<g>
				<path style="fill:#FFFFFF;" d="M402.272,862.699h3.698l6.46,17.193h-3.578l-1.416-4.106h-6.628l-1.417,4.106h-3.578
					L402.272,862.699z M406.379,872.808l-1.537-4.298l-0.625-2.089h-0.192l-0.625,2.089l-1.537,4.298H406.379z"/>
				<path style="fill:#FFFFFF;" d="M415.815,866.541c-0.273,0-0.533-0.052-0.781-0.156c-0.248-0.104-0.465-0.248-0.648-0.432
					c-0.184-0.184-0.328-0.396-0.432-0.636c-0.105-0.241-0.156-0.504-0.156-0.793s0.052-0.552,0.156-0.793
					c0.104-0.24,0.248-0.452,0.432-0.636c0.184-0.184,0.4-0.328,0.648-0.432c0.248-0.104,0.508-0.156,0.781-0.156
					c0.56,0,1.041,0.196,1.441,0.588c0.4,0.393,0.601,0.869,0.601,1.429c0,0.56-0.201,1.037-0.601,1.428
					C416.856,866.345,416.375,866.541,415.815,866.541z M414.255,879.891v-11.766h3.145v11.766H414.255z"/>
			</g>
			<g>
				<path style="fill:#FFFFFF;" d="M524.043,859.493c-0.013-2.665-2.087-4.618-4.766-4.659c-2.011-0.031-1.81,0.261-1.815-1.887
					c-0.006-2.389-0.015-4.778,0.006-7.166c0.007-0.824-0.243-1.505-0.787-2.125c-5.098-5.81-10.184-11.63-15.281-17.441
					c-0.262-0.299-0.599-0.532-0.901-0.796c-13.528,0-27.055,0-40.583,0c-1.729,0.639-2.482,1.889-2.478,3.72
					c0.021,8.159,0.009,16.318,0.008,24.478c0,1.21-0.007,1.281-1.197,1.201c-3.258-0.221-5.477,2.147-5.436,5.426
					c0.096,7.568,0.028,15.137,0.031,22.706c0.001,3.44,1.887,5.32,5.333,5.331c1.267,0.004,1.268,0.004,1.268,1.306
					c0.001,4.831-0.002,9.662,0.002,14.493c0.002,2.595,1.262,3.855,3.85,3.855c17.446,0.001,34.891,0.001,52.337,0
					c2.543,0,3.822-1.268,3.824-3.799c0.005-4.912,0.001-9.823,0.003-14.735c0-1.115,0.004-1.112,1.131-1.121
					c0.589-0.005,1.177,0.017,1.761-0.127c2.169-0.535,3.68-2.273,3.689-4.503C524.076,875.597,524.081,867.545,524.043,859.493z
					 M462.104,828.716c11.619-0.001,23.237-0.001,34.856,0c1.192,0,1.206,0.015,1.207,1.222c0.001,4.884-0.001,9.767,0.002,14.651
					c0.001,1.765,0.543,2.305,2.307,2.306c4.159,0.003,8.318,0,12.477,0.003c0.997,0.001,1.044,0.046,1.046,1.052
					c0.006,1.932,0.005,3.864,0,5.796c-0.003,1.038-0.051,1.085-1.098,1.085c-8.479,0.002-16.958,0.001-25.438,0.001
					c-8.452,0-16.905,0-25.357,0c-1.198,0-1.202-0.003-1.202-1.221c-0.001-7.889-0.001-15.778,0-23.667
					C460.905,828.724,460.914,828.716,462.104,828.716z M512.798,903.645c-8.454,0.001-16.908,0.001-25.362,0.001
					c-8.427,0-16.854,0.001-25.281,0c-1.245,0-1.249-0.003-1.249-1.262c-0.001-4.348-0.002-8.696,0.001-13.043
					c0.001-1.01,0.051-1.059,1.041-1.059c16.989-0.002,33.977-0.002,50.966,0c1.041,0,1.086,0.044,1.087,1.094
					c0.003,4.348,0.003,8.696,0.001,13.043C514,903.634,513.989,903.645,512.798,903.645z"/>
			</g>
			<g>
				<path style="fill:#FFFFFF;" d="M470.308,880.275c-0.737,0-1.441-0.104-2.113-0.312c-0.672-0.208-1.289-0.52-1.849-0.936
					c-0.56-0.416-1.048-0.925-1.464-1.525c-0.417-0.601-0.745-1.301-0.985-2.101l3.049-1.2c0.224,0.864,0.616,1.581,1.177,2.149
					s1.297,0.852,2.209,0.852c0.336,0,0.66-0.044,0.973-0.132c0.312-0.087,0.592-0.216,0.84-0.384
					c0.248-0.168,0.444-0.38,0.589-0.636c0.144-0.256,0.216-0.552,0.216-0.888c0-0.32-0.056-0.608-0.168-0.865
					c-0.112-0.255-0.3-0.495-0.564-0.72c-0.264-0.224-0.609-0.44-1.033-0.648c-0.424-0.208-0.948-0.424-1.572-0.648l-1.056-0.384
					c-0.465-0.16-0.933-0.376-1.405-0.648c-0.472-0.272-0.9-0.6-1.284-0.985c-0.385-0.384-0.701-0.836-0.949-1.357
					c-0.249-0.52-0.372-1.108-0.372-1.765c0-0.672,0.132-1.301,0.396-1.885c0.264-0.584,0.64-1.096,1.129-1.537
					c0.488-0.44,1.072-0.784,1.753-1.032c0.681-0.248,1.437-0.372,2.269-0.372c0.864,0,1.612,0.116,2.245,0.348
					c0.633,0.232,1.168,0.528,1.609,0.888c0.44,0.36,0.796,0.757,1.068,1.188c0.272,0.433,0.472,0.84,0.601,1.225l-2.857,1.2
					c-0.161-0.48-0.453-0.913-0.876-1.297c-0.425-0.384-1.005-0.576-1.741-0.576c-0.704,0-1.289,0.164-1.753,0.492
					c-0.465,0.329-0.697,0.757-0.697,1.285c0,0.512,0.224,0.949,0.672,1.309c0.448,0.36,1.161,0.708,2.137,1.044l1.081,0.36
					c0.688,0.241,1.316,0.517,1.885,0.828c0.568,0.312,1.056,0.684,1.465,1.117c0.408,0.433,0.72,0.925,0.936,1.477
					c0.217,0.552,0.324,1.189,0.324,1.909c0,0.897-0.18,1.669-0.54,2.317c-0.36,0.648-0.82,1.181-1.38,1.597
					c-0.561,0.416-1.193,0.728-1.897,0.936C471.668,880.172,470.98,880.275,470.308,880.275z"/>
				<path style="fill:#FFFFFF;" d="M477.175,862.699h3.506l3.554,10.349l0.625,2.209h0.192l0.672-2.209l3.698-10.349h3.506
					l-6.268,17.193h-3.409L477.175,862.699z"/>
				<path style="fill:#FFFFFF;" d="M502.388,870.454h8.428c0.048,0.193,0.088,0.425,0.12,0.697c0.033,0.272,0.049,0.544,0.049,0.816
					c0,1.104-0.169,2.145-0.505,3.121c-0.336,0.977-0.864,1.849-1.585,2.618c-0.768,0.817-1.688,1.449-2.761,1.897
					c-1.073,0.448-2.298,0.672-3.674,0.672c-1.249,0-2.425-0.224-3.529-0.672c-1.105-0.447-2.066-1.072-2.882-1.873
					c-0.816-0.8-1.465-1.749-1.945-2.845c-0.48-1.097-0.72-2.293-0.72-3.59c0-1.296,0.241-2.493,0.72-3.589
					c0.48-1.097,1.129-2.045,1.945-2.845c0.816-0.8,1.777-1.425,2.882-1.873c1.104-0.448,2.28-0.672,3.529-0.672
					c1.392,0,2.637,0.24,3.734,0.72c1.097,0.48,2.038,1.144,2.822,1.993l-2.234,2.185c-0.56-0.592-1.185-1.044-1.874-1.357
					c-0.687-0.312-1.512-0.468-2.473-0.468c-0.784,0-1.528,0.14-2.234,0.421c-0.704,0.28-1.321,0.676-1.848,1.188
					c-0.528,0.512-0.949,1.133-1.261,1.861c-0.312,0.728-0.468,1.541-0.468,2.437c0,0.897,0.156,1.709,0.468,2.438
					c0.312,0.728,0.737,1.349,1.273,1.861c0.536,0.512,1.156,0.909,1.86,1.188c0.705,0.281,1.457,0.421,2.258,0.421
					c0.913,0,1.685-0.132,2.317-0.396c0.632-0.264,1.173-0.604,1.621-1.021c0.32-0.288,0.596-0.652,0.828-1.092
					c0.233-0.44,0.412-0.932,0.541-1.477h-5.402V870.454z"/>
			</g>
			<g>
				<path style="fill:#FFFFFF;" d="M602.976,859.493c-0.013-2.665-2.087-4.618-4.766-4.659c-2.011-0.031-1.81,0.261-1.815-1.887
					c-0.006-2.389-0.015-4.778,0.006-7.166c0.007-0.824-0.243-1.505-0.787-2.125c-5.098-5.81-10.184-11.63-15.281-17.441
					c-0.262-0.299-0.599-0.532-0.901-0.796c-13.528,0-27.055,0-40.583,0c-1.729,0.639-2.482,1.889-2.478,3.72
					c0.021,8.159,0.009,16.318,0.008,24.478c0,1.21-0.007,1.281-1.197,1.201c-3.258-0.221-5.477,2.147-5.436,5.426
					c0.096,7.568,0.028,15.137,0.031,22.706c0.001,3.44,1.887,5.32,5.333,5.331c1.267,0.004,1.268,0.004,1.268,1.306
					c0.001,4.831-0.002,9.662,0.002,14.493c0.002,2.595,1.262,3.855,3.85,3.855c17.446,0.001,34.891,0.001,52.337,0
					c2.543,0,3.822-1.268,3.824-3.799c0.005-4.912,0.001-9.823,0.003-14.735c0-1.115,0.005-1.112,1.131-1.121
					c0.589-0.005,1.178,0.017,1.761-0.127c2.169-0.535,3.68-2.273,3.689-4.503C603.01,875.597,603.015,867.545,602.976,859.493z
					 M541.037,828.716c11.619-0.001,23.237-0.001,34.856,0c1.193,0,1.206,0.015,1.207,1.222c0.001,4.884-0.002,9.767,0.002,14.651
					c0.001,1.765,0.543,2.305,2.307,2.306c4.159,0.003,8.318,0,12.477,0.003c0.997,0.001,1.044,0.046,1.046,1.052
					c0.006,1.932,0.005,3.864,0,5.796c-0.003,1.038-0.051,1.085-1.098,1.085c-8.479,0.002-16.958,0.001-25.438,0.001
					c-8.452,0-16.905,0-25.357,0c-1.198,0-1.202-0.003-1.202-1.221c-0.001-7.889-0.001-15.778,0-23.667
					C539.838,828.724,539.847,828.716,541.037,828.716z M591.731,903.645c-8.454,0.001-16.908,0.001-25.362,0.001
					c-8.427,0-16.854,0.001-25.281,0c-1.245,0-1.249-0.003-1.249-1.262c-0.001-4.348-0.003-8.696,0.001-13.043
					c0.001-1.01,0.051-1.059,1.041-1.059c16.989-0.002,33.977-0.002,50.966,0c1.041,0,1.086,0.044,1.087,1.094
					c0.003,4.348,0.003,8.696,0.001,13.043C592.934,903.634,592.923,903.645,591.731,903.645z"/>
			</g>
			<g>
				<path style="fill:#FFFFFF;" d="M549.998,865.772v3.986h6.891v3.074h-6.891v3.986h7.659v3.073h-10.901v-17.193h10.901v3.073
					H549.998z"/>
				<path style="fill:#FFFFFF;" d="M560.635,879.891v-17.193h6.051c0.816,0,1.581,0.132,2.293,0.396
					c0.712,0.264,1.333,0.636,1.861,1.117c0.528,0.48,0.944,1.053,1.249,1.717c0.304,0.665,0.456,1.397,0.456,2.198
					c0,0.816-0.152,1.557-0.456,2.221c-0.305,0.664-0.721,1.236-1.249,1.717c-0.528,0.48-1.149,0.852-1.861,1.117
					c-0.713,0.264-1.477,0.396-2.293,0.396h-2.809v6.315H560.635z M566.735,870.503c0.848,0,1.489-0.241,1.921-0.721
					c0.432-0.48,0.648-1.032,0.648-1.656c0-0.304-0.052-0.601-0.156-0.889c-0.105-0.288-0.264-0.54-0.48-0.756
					c-0.216-0.217-0.484-0.388-0.805-0.516c-0.32-0.129-0.696-0.193-1.128-0.193h-2.857v4.731H566.735z"/>
				<path style="fill:#FFFFFF;" d="M580.109,880.275c-0.737,0-1.441-0.104-2.113-0.312c-0.672-0.208-1.289-0.52-1.849-0.936
					c-0.56-0.416-1.049-0.925-1.465-1.525c-0.416-0.601-0.744-1.301-0.985-2.101l3.049-1.2c0.224,0.864,0.616,1.581,1.177,2.149
					c0.56,0.568,1.296,0.852,2.209,0.852c0.336,0,0.66-0.044,0.973-0.132c0.312-0.087,0.592-0.216,0.84-0.384
					c0.248-0.168,0.444-0.38,0.588-0.636c0.144-0.256,0.217-0.552,0.217-0.888c0-0.32-0.057-0.608-0.168-0.865
					c-0.112-0.255-0.3-0.495-0.565-0.72c-0.264-0.224-0.608-0.44-1.032-0.648c-0.424-0.208-0.949-0.424-1.573-0.648l-1.056-0.384
					c-0.465-0.16-0.932-0.376-1.404-0.648c-0.473-0.272-0.901-0.6-1.285-0.985c-0.384-0.384-0.701-0.836-0.949-1.357
					c-0.248-0.52-0.372-1.108-0.372-1.765c0-0.672,0.132-1.301,0.396-1.885c0.264-0.584,0.64-1.096,1.129-1.537
					c0.489-0.44,1.073-0.784,1.753-1.032c0.68-0.248,1.437-0.372,2.269-0.372c0.865,0,1.613,0.116,2.246,0.348
					c0.632,0.232,1.168,0.528,1.609,0.888c0.44,0.36,0.796,0.757,1.068,1.188c0.272,0.433,0.472,0.84,0.601,1.225l-2.857,1.2
					c-0.161-0.48-0.453-0.913-0.877-1.297s-1.005-0.576-1.741-0.576c-0.705,0-1.289,0.164-1.753,0.492
					c-0.465,0.329-0.696,0.757-0.696,1.285c0,0.512,0.224,0.949,0.672,1.309c0.448,0.36,1.16,0.708,2.137,1.044l1.08,0.36
					c0.689,0.241,1.317,0.517,1.885,0.828c0.568,0.312,1.056,0.684,1.465,1.117c0.408,0.433,0.72,0.925,0.936,1.477
					c0.216,0.552,0.324,1.189,0.324,1.909c0,0.897-0.18,1.669-0.54,2.317c-0.36,0.648-0.821,1.181-1.38,1.597
					c-0.561,0.416-1.193,0.728-1.897,0.936C581.47,880.172,580.782,880.275,580.109,880.275z"/>
			</g>
			<g>
				<path style="fill:#FFFFFF;" d="M655.431,876.625l8.716-10.854h-8.332v-3.073h12.103v3.266l-8.621,10.854h8.716v3.073h-12.582
					V876.625z"/>
				<path style="fill:#FFFFFF;" d="M670.702,862.699h3.242v17.193h-3.242V862.699z"/>
				<path style="fill:#FFFFFF;" d="M677.402,879.891v-17.193h6.051c0.817,0,1.581,0.132,2.293,0.396
					c0.712,0.264,1.333,0.636,1.861,1.117s0.944,1.053,1.249,1.717c0.304,0.665,0.456,1.397,0.456,2.198
					c0,0.816-0.152,1.557-0.456,2.221c-0.305,0.664-0.721,1.236-1.249,1.717s-1.149,0.852-1.861,1.117
					c-0.713,0.264-1.477,0.396-2.293,0.396h-2.809v6.315H677.402z M683.501,870.503c0.848,0,1.489-0.241,1.921-0.721
					c0.433-0.48,0.648-1.032,0.648-1.656c0-0.304-0.052-0.601-0.156-0.889c-0.105-0.288-0.264-0.54-0.48-0.756
					c-0.216-0.217-0.484-0.388-0.805-0.516c-0.32-0.129-0.696-0.193-1.128-0.193h-2.857v4.731H683.501z"/>
			</g>
		</g>
		<g style="opacity:0.61;">
			<path style="fill:#FFFFFF;" d="M609.144,863.785h19.739v4.881h-19.739V863.785z M609.144,872.201h19.739v4.884h-19.739V872.201z"
				/>
		</g>
	</g>
	<g style="opacity:0.61;">
		<path style="fill:#FFFFFF;" d="M297,963.076h3.498c2.75,0,4.603,1.768,4.603,4.297s-1.854,4.296-4.603,4.296H297V963.076z
			 M300.449,970.883c2.283,0,3.756-1.448,3.756-3.51s-1.473-3.511-3.756-3.511h-2.541v7.021H300.449z"/>
		<path style="fill:#FFFFFF;" d="M315.251,967.373c0-2.504,1.915-4.37,4.517-4.37c2.577,0,4.505,1.853,4.505,4.37
			c0,2.516-1.927,4.369-4.505,4.369C317.166,971.742,315.251,969.877,315.251,967.373z M323.365,967.373
			c0-2.05-1.534-3.56-3.596-3.56c-2.075,0-3.621,1.51-3.621,3.56c0,2.049,1.546,3.559,3.621,3.559
			C321.831,970.932,323.365,969.422,323.365,967.373z"/>
		<path style="fill:#FFFFFF;" d="M346.724,963.076l-2.897,8.593h-0.957l-2.516-7.328l-2.529,7.328h-0.945l-2.897-8.593h0.933
			l2.479,7.389l2.566-7.389h0.847l2.529,7.426l2.516-7.426H346.724z"/>
		<path style="fill:#FFFFFF;" d="M364.435,963.076v8.593h-0.749l-5.524-6.972v6.972h-0.908v-8.593h0.749l5.536,6.973v-6.973H364.435
			z"/>
		<path style="fill:#FFFFFF;" d="M376.108,963.076h0.908v7.807h4.812v0.786h-5.72V963.076z"/>
		<path style="fill:#FFFFFF;" d="M391.279,967.373c0-2.504,1.915-4.37,4.517-4.37c2.577,0,4.505,1.853,4.505,4.37
			c0,2.516-1.927,4.369-4.505,4.369C393.194,971.742,391.279,969.877,391.279,967.373z M399.392,967.373
			c0-2.05-1.534-3.56-3.596-3.56c-2.075,0-3.621,1.51-3.621,3.56c0,2.049,1.546,3.559,3.621,3.559
			C397.858,970.932,399.392,969.422,399.392,967.373z"/>
		<path style="fill:#FFFFFF;" d="M416.478,969.374h-4.787l-1.031,2.295h-0.945l3.928-8.593h0.896l3.928,8.593h-0.957
			L416.478,969.374z M416.147,968.637l-2.062-4.615l-2.062,4.615H416.147z"/>
		<path style="fill:#FFFFFF;" d="M428.765,963.076h3.498c2.75,0,4.603,1.768,4.603,4.297s-1.854,4.296-4.603,4.296h-3.498V963.076z
			 M432.214,970.883c2.283,0,3.756-1.448,3.756-3.51s-1.473-3.511-3.756-3.511h-2.541v7.021H432.214z"/>
		<path style="fill:#FFFFFF;" d="M465.256,969.374h-4.787l-1.031,2.295h-0.945l3.928-8.593h0.896l3.928,8.593h-0.957
			L465.256,969.374z M464.925,968.637l-2.062-4.615l-2.062,4.615H464.925z"/>
		<path style="fill:#FFFFFF;" d="M477.543,963.076h0.908v7.807h4.812v0.786h-5.72V963.076z"/>
		<path style="fill:#FFFFFF;" d="M493.647,963.076h0.908v7.807h4.812v0.786h-5.72V963.076z"/>
		<path style="fill:#FFFFFF;" d="M522.749,963.862v3.376h4.443v0.786h-4.443v3.646h-0.909v-8.593h5.891v0.786H522.749z"/>
		<path style="fill:#FFFFFF;" d="M538.485,963.076h0.909v8.593h-0.909V963.076z"/>
		<path style="fill:#FFFFFF;" d="M551.067,963.076h0.909v7.807h4.811v0.786h-5.72V963.076z"/>
		<path style="fill:#FFFFFF;" d="M573.246,970.883v0.786h-6.076v-8.593h5.891v0.786h-4.983v3.056h4.443v0.774h-4.443v3.191H573.246z
			"/>
		<path style="fill:#FFFFFF;" d="M597.255,963.862v3.376h4.443v0.786h-4.443v3.646h-0.909v-8.593h5.891v0.786H597.255z"/>
		<path style="fill:#FFFFFF;" d="M612.119,967.373c0-2.504,1.915-4.37,4.517-4.37c2.577,0,4.505,1.853,4.505,4.37
			c0,2.516-1.927,4.369-4.505,4.369C614.034,971.742,612.119,969.877,612.119,967.373z M620.232,967.373
			c0-2.05-1.534-3.56-3.596-3.56c-2.075,0-3.622,1.51-3.622,3.56c0,2.049,1.547,3.559,3.622,3.559
			C618.698,970.932,620.232,969.422,620.232,967.373z"/>
		<path style="fill:#FFFFFF;" d="M637.919,971.669l-1.963-2.762c-0.222,0.024-0.442,0.037-0.688,0.037h-2.307v2.725h-0.909v-8.593
			h3.216c2.185,0,3.511,1.105,3.511,2.946c0,1.351-0.712,2.295-1.964,2.7l2.099,2.946H637.919z M637.871,966.022
			c0-1.375-0.909-2.161-2.627-2.161h-2.283v4.309h2.283C636.962,968.17,637.871,967.373,637.871,966.022z"/>
		<path style="fill:#FFFFFF;" d="M658.724,963.076v8.593h-0.871v-6.874l-3.376,5.782h-0.429l-3.376-5.745v6.837h-0.872v-8.593h0.749
			l3.732,6.371l3.695-6.371H658.724z"/>
		<path style="fill:#FFFFFF;" d="M675.787,969.374h-4.788l-1.031,2.295h-0.946l3.928-8.593h0.896l3.928,8.593h-0.957
			L675.787,969.374z M675.455,968.637l-2.062-4.615l-2.062,4.615H675.455z"/>
		<path style="fill:#FFFFFF;" d="M689.312,963.862h-3.02v-0.786h6.948v0.786h-3.02v7.807h-0.908V963.862z"/>
		<path style="fill:#FFFFFF;" d="M702.605,970.626l0.356-0.7c0.614,0.601,1.706,1.043,2.835,1.043c1.608,0,2.308-0.675,2.308-1.522
			c0-2.357-5.29-0.908-5.29-4.087c0-1.265,0.982-2.357,3.167-2.357c0.97,0,1.976,0.282,2.664,0.761l-0.307,0.724
			c-0.737-0.479-1.596-0.712-2.357-0.712c-1.571,0-2.271,0.7-2.271,1.559c0,2.357,5.29,0.933,5.29,4.063
			c0,1.265-1.006,2.344-3.204,2.344C704.508,971.742,703.243,971.288,702.605,970.626z"/>
	</g>
</g>
<g>
</g>
<g>
	<g>
		<path style="fill:#D0D2D3;" d="M742.131,518.2c0,132.901-107.733,240.641-240.642,240.641
			c-132.899,0-240.636-107.74-240.636-240.641c0-132.892,107.737-240.633,240.636-240.633
			C634.397,277.566,742.131,385.308,742.131,518.2z"/>
	</g>
	<g>
		<path style="fill:#0066B2;" d="M501.488,765.231c-136.211,0-247.025-110.817-247.025-247.03
			c0-136.209,110.814-247.024,247.025-247.024c136.214,0,247.032,110.814,247.032,247.024
			C748.52,654.414,637.702,765.231,501.488,765.231z M501.488,283.956c-129.164,0-234.246,105.082-234.246,234.245
			c0,129.167,105.082,234.251,234.246,234.251c129.168,0,234.253-105.085,234.253-234.251
			C735.741,389.037,630.656,283.956,501.488,283.956z"/>
	</g>
	<g>
		<path style="fill:#D0D2D3;" d="M742.131,518.2c0,132.901-107.733,240.641-240.642,240.641
			c-132.899,0-240.636-107.74-240.636-240.641c0-132.892,107.737-240.633,240.636-240.633
			C634.397,277.566,742.131,385.308,742.131,518.2z"/>
	</g>
	<g>
		<path style="fill:#231F20;" d="M501.488,761.397c-134.096,0-243.192-109.099-243.192-243.197
			c0-134.095,109.095-243.19,243.192-243.19c134.1,0,243.199,109.095,243.199,243.19
			C744.687,652.299,635.588,761.397,501.488,761.397z M501.488,280.122c-131.277,0-238.08,106.801-238.08,238.078
			c0,131.28,106.803,238.085,238.08,238.085c131.281,0,238.086-106.805,238.086-238.085
			C739.574,386.923,632.77,280.122,501.488,280.122z"/>
	</g>
	<g>
		<path style="fill:#231F20;" d="M400.273,365.109l198.64,1.263v-54.394c-2.535-10.129-25.309-17.718-25.309-17.718v-40.481
			c0,0-7.587-16.453-74.644-16.453s-72.119,17.716-72.119,17.716v36.692c0,0-21.505,5.052-26.567,15.183V365.109z"/>
	</g>
	<g>
		<path style="fill:#0066B2;" d="M601.469,368.944l-203.752-1.296v-61.335l0.27-0.539c4.628-9.261,20.637-14.439,26.297-16.014
			v-35.076l0.098-0.344c0.573-2.003,7.528-19.57,74.577-19.57c66.766,0,76.118,16.102,76.964,17.939l0.236,0.509v39.232
			c5.843,2.144,22.786,9.134,25.232,18.907l0.077,0.306V368.944z M402.829,362.57l193.527,1.23v-51.477
			c-1.914-6.295-15.388-12.91-23.562-15.639l-1.746-0.583l-0.001-41.579c-1.731-2.19-14.119-14.641-72.088-14.641
			c-58.616,0-68.426,13.649-69.563,15.699v38.177l-1.971,0.464c-5.531,1.304-20.464,6.193-24.597,13.337V362.57z"/>
	</g>
	<g>
		<path style="fill:#C96C18;" d="M690.172,506.822c0,104.217-84.467,188.693-188.683,188.693
			c-104.209,0-188.677-84.477-188.677-188.693c0-104.208,84.468-188.684,188.677-188.684
			C605.705,318.138,690.172,402.614,690.172,506.822z"/>
	</g>
	<g>
		<path style="fill:#231F20;" d="M501.488,698.071c-105.446,0-191.233-85.794-191.233-191.249
			c0-105.45,85.787-191.24,191.233-191.24c105.45,0,191.24,85.79,191.24,191.24C692.728,612.277,606.938,698.071,501.488,698.071z
			 M501.488,320.694c-102.628,0-186.121,83.497-186.121,186.129c0,102.636,83.493,186.136,186.121,186.136
			c102.631,0,186.127-83.5,186.127-186.136C687.615,404.191,604.119,320.694,501.488,320.694z"/>
	</g>
	<g>
		<path style="fill:#231F20;" d="M478.715,671.967c-64.406,0-96.018-16.057-97.333-16.741l2.357-4.536
			c0.312,0.161,31.966,16.164,94.976,16.164c66.381,0,128.929-29.815,158.953-57.518l3.467,3.758
			C609.374,642.398,546.836,671.967,478.715,671.967z"/>
	</g>
	<g>
		<path style="fill:#231F20;" d="M576.719,676.848c-17.387,0.001-32.142-9.052-36.872-16.145c-1.93-2.894-2.342-9.834,9.236-39.359
			c6.279-16.014,13.27-31.295,13.341-31.448l4.646,2.13c-12.928,28.211-25.383,61.411-22.961,65.856
			c4.2,6.297,24.185,19.033,46.411,11.63l1.615,4.85C586.896,676.104,581.699,676.848,576.719,676.848z"/>
	</g>
	<g>
		<path style="fill:#231F20;" d="M521.068,695.135c-26.604-30.421-48.914-100.439-49.852-103.405l4.875-1.539
			c0.226,0.717,22.926,71.965,48.825,101.581L521.068,695.135z"/>
	</g>
	<g>
		<path style="fill:#231F20;" d="M467.21,691.774l-4.815-1.719c5.901-16.528-2.57-31.903-10.471-37.542
			c-8.987-6.424-44.472-46.759-45.978-48.473l3.841-3.374c0.365,0.415,36.597,41.604,45.109,47.687
			C465.641,656.024,473.61,673.85,467.21,691.774z"/>
	</g>
	<g>
		<path style="fill:#231F20;" d="M491.368,351.135c-0.132-1.003-3.028-24.682,14.768-34.26l2.423,4.501
			c-14.672,7.896-12.149,28.885-12.122,29.096L491.368,351.135z"/>
	</g>
	<g>
		<path style="fill:#231F20;" d="M252.556,466.331c0,0,77.969-76.685,244.631-76.685c166.665,0,249.358,76.685,249.358,76.685
			l0.896,196.795l-10.644,11.961c0,0-66.744-79.7-236.95-79.7c-170.207,0-236.218,79.7-236.218,79.7l-11.073-11.961V466.331z"/>
	</g>
	<g>
		<path style="fill:#231F20;" d="M736.74,678.994l-1.903-2.264c-0.165-0.197-16.976-19.917-54.169-39.383
			c-34.347-17.976-93.6-39.403-180.821-39.403c-87.218,0-146.27,21.426-180.45,39.399c-37.011,19.463-53.638,39.179-53.801,39.375
			l-1.862,2.241L250,664.128V465.26l0.763-0.751c0.809-0.796,20.262-19.693,60.512-38.828c37.029-17.605,99.343-38.59,185.911-38.59
			c86.557,0,150.147,20.978,188.249,38.578c41.399,19.121,61.99,37.994,62.845,38.788l0.814,0.754L750,664.094L736.74,678.994z
			 M255.111,662.124l8.486,9.168c5.386-5.752,22.112-21.961,53.12-38.316c34.724-18.313,94.683-40.145,183.129-40.145
			c88.444,0,148.599,21.831,183.489,40.143c31.12,16.335,47.987,32.52,53.444,38.288l8.1-9.104l-0.886-194.673
			c-4.207-3.651-24.67-20.567-60.936-37.285c-37.603-17.335-100.372-37.998-185.871-37.998c-85.616,0-147.162,20.716-183.716,38.095
			c-35.136,16.704-54.408,33.51-58.359,37.14V662.124z"/>
	</g>
	<g>
		<path style="fill:#231F20;" d="M413.031,360.855c-4.261-12.779,20.819-31.539,23.693-33.636l3.013,4.129
			c-9.686,7.075-24.188,20.902-21.856,27.889L413.031,360.855z"/>
	</g>
	<g>
		
			<rect x="570.419" y="331.067" transform="matrix(0.9438 -0.3306 0.3306 0.9438 -81.6618 208.7787)" style="fill:#231F20;" width="5.112" height="26.813"/>
	</g>
	<g>
		<path style="fill:#0066B2;" d="M258.147,425.843c0,0,80.553-72.956,239.13-72.956c158.567,0,242.076,72.956,242.076,72.956
			l0.84,221.832l-10.124,11.386c0,0-68.324-70.849-230.266-70.849c-161.941,0-231.113,70.849-231.113,70.849l-10.543-11.386V425.843
			z"/>
	</g>
	<g>
		<path style="fill:#00386C;" d="M730.148,662.819l-1.918-1.982c-0.169-0.175-17.364-17.714-53.947-35.026
			c-33.781-15.986-91.473-35.043-174.48-35.043c-83.012,0-140.936,19.059-174.911,35.046
			c-36.796,17.316-54.203,34.858-54.374,35.034l-1.878,1.918l-13.048-14.089V424.709l0.84-0.761
			c0.835-0.755,20.891-18.714,60.753-36.908c36.69-16.747,97.718-36.709,180.093-36.709c82.362,0,144.185,19.958,181.546,36.701
			c40.58,18.186,61.348,36.13,62.212,36.885l0.869,0.76l0.005,1.155l0.843,222.81L730.148,662.819z M260.702,646.674l8.099,8.746
			c5.499-5.047,22.706-19.504,53.626-34.095c34.483-16.271,93.248-35.67,177.375-35.67c84.13,0,142.666,19.399,176.957,35.672
			c30.635,14.538,47.661,28.946,53.168,34.047l7.706-8.667l-0.831-219.667c-4.344-3.561-24.864-19.594-60.289-35.442
			c-36.87-16.494-97.894-36.156-179.235-36.156c-81.331,0-141.547,19.655-177.741,36.143c-34.772,15.84-54.634,31.866-58.833,35.425
			V646.674z"/>
	</g>
	<g>
		<path style="fill:#00386C;" d="M733.375,439.938c-0.191-0.18-19.49-18.169-57.868-35.923c-35.419-16.386-94.8-35.92-176.548-35.92
			c-81.736,0-140.655,19.529-175.688,35.911c-37.956,17.75-56.834,35.733-57.021,35.913l-3.551-3.677
			c0.779-0.753,19.517-18.639,58.152-36.747c35.54-16.656,95.287-36.512,178.107-36.512c82.817,0,143.021,19.853,178.943,36.507
			c39.044,18.102,58.188,35.979,58.983,36.731L733.375,439.938z"/>
	</g>
	<g>
		<path style="fill:#00386C;" d="M262.708,647.556l-3.211-3.977c0.233-0.188,23.717-18.977,64.872-37.455
			c37.936-17.032,99.168-37.336,175.434-37.336c76.274,0,136.823,20.308,174.187,37.343c40.543,18.485,62.7,36.704,63.624,37.47
			l-3.264,3.934c-0.222-0.184-22.68-18.631-62.66-36.836c-36.871-16.788-96.62-36.799-171.887-36.799
			C355.608,573.9,263.62,646.819,262.708,647.556z"/>
	</g>
	<g>
		<path style="fill:#231F20;" d="M350.962,659.354c3.24-2.738,5.191-6.087,2.086-9.943c-4.308-5.341-11.966,0.699-15.644,3.664
			c-3.905,2.902-12.386,9.609-7.843,15.256c2.96,3.672,6.593,2.033,9.934-0.053c0.688-0.43,1.349-0.901,2.042-1.338l2.481,3.084
			c-0.615,0.376-1.208,0.843-1.832,1.219c-2.411,1.647-4.204,2.899-7.208,3.13c-3.171,0.155-5.836-0.88-7.987-3.547
			c-6.904-8.565,1.129-15.528,7.772-20.882c6.272-5.052,14.882-10.462,21.242-2.556c4.253,5.274,2.525,11.179-2.561,15.038
			L350.962,659.354z"/>
	</g>
	<g>
		<path style="fill:#231F20;" d="M361.779,680.175c-6.27,7.678-11.447,15.824-3.429,22.505c8.023,6.673,15.137,0.137,21.522-7.451
			c5.277-6.271,10.443-14.486,2.42-21.161C374.13,667.27,367.02,673.88,361.779,680.175z M376.655,692.683
			c-6.654,7.917-10.961,11.454-16.013,7.249c-5.058-4.208-2.353-9.096,4.223-17.066c5.051-6.14,10.31-10.073,14.997-6.176
			C384.693,680.713,381.782,686.601,376.655,692.683z"/>
	</g>
	<g>
		<path style="fill:#231F20;" d="M420.442,699.338l3.51,1.825L407.547,732.9l-5.755-2.973l4.237-29.985
			c0.235-1.702,0.595-3.339,1.288-5.404l-0.088-0.04c-0.789,1.633-1.597,3.306-2.432,4.917l-13.079,25.303l-3.519-1.811
			l16.414-31.742l5.717,2.946l-4.419,30.653c-0.124,1.162-0.355,2.334-0.699,4.038l0.091,0.047c0.544-1.165,1.132-2.419,1.752-3.6
			L420.442,699.338z"/>
	</g>
	<g>
		<polygon style="fill:#231F20;" points="430.623,741.633 440.431,707.268 456.55,711.869 455.573,715.309 443.245,711.796 
			440.037,723.061 451.485,726.333 450.5,729.772 439.054,726.498 434.421,742.722 		"/>
	</g>
	<g>
		<polygon style="fill:#231F20;" points="467.866,750.145 471.528,714.593 489.299,716.418 488.933,719.979 475.098,718.55 
			473.889,730.31 486.874,731.637 486.505,735.198 473.523,733.854 472.165,746.98 486.105,748.421 485.739,751.965 		"/>
	</g>
	<g>
		<path style="fill:#231F20;" d="M512.17,736.36l6.889-0.537c4.652-0.36,6.321,2.569,6.59,6.13c0.188,2.382,0.91,6.766,1.948,8.982
			l4.602-0.36l-0.061-0.813c-0.948,0.073-1.358-1.465-1.558-2.124c-0.578-2.637-1.028-5.226-1.368-7.873
			c-0.946-4.703-2.197-6.087-6.839-6.16l-0.01-0.091c4.094-0.887,6.42-4.081,6.241-8.28c-0.409-8.239-5.313-9.805-12.77-9.227
			l-9.156,0.715l2.768,35.618l3.943-0.309L512.17,736.36z M510.893,719.979l5.559-0.43c2.657-0.212,7.47-0.44,8.037,5.677
			c0.582,6.214-4.521,6.899-6.368,7.094l-6.23,0.484L510.893,719.979z"/>
	</g>
	<g>
		<polygon style="fill:#231F20;" points="555.225,746.133 545.527,711.738 562.731,706.892 563.699,710.331 550.311,714.11 
			553.514,725.477 566.077,721.939 567.044,725.379 554.486,728.913 558.059,741.623 571.538,737.824 572.516,741.257 		"/>
	</g>
	<g>
		<path style="fill:#231F20;" d="M594.13,692.64l3.518-1.837l16.501,31.701l-5.75,2.983l-22.074-20.722
			c-1.259-1.178-2.389-2.415-3.674-4.165l-0.081,0.047c0.879,1.576,1.777,3.205,2.616,4.817l13.161,25.259l-3.518,1.837
			l-16.501-31.694l5.709-2.966l22.505,21.252c0.89,0.78,1.716,1.633,2.916,2.886l0.081-0.044c-0.639-1.109-1.317-2.318-1.938-3.5
			L594.13,692.64z"/>
	</g>
	<g>
		<path style="fill:#231F20;" d="M631.623,679.009c-2.764-3.227-6.121-5.159-9.953-2.029c-5.323,4.337,0.776,11.972,3.763,15.623
			c2.926,3.879,9.684,12.326,15.296,7.746c3.654-2.987,1.999-6.601-0.111-9.933c-0.437-0.689-0.907-1.347-1.357-2.039l3.067-2.493
			c0.38,0.616,0.867,1.2,1.245,1.821c1.65,2.399,2.926,4.185,3.158,7.186c0.188,3.173-0.829,5.841-3.486,8.017
			c-8.526,6.95-15.535-1.035-20.926-7.641c-5.093-6.241-10.553-14.819-2.698-21.233c5.254-4.285,11.173-2.593,15.068,2.469
			L631.623,679.009z"/>
	</g>
	<g>
		<polygon style="fill:#231F20;" points="666.817,679.591 639.66,656.36 651.272,642.787 653.99,645.115 644.94,655.682 
			653.929,663.361 662.413,653.441 665.131,655.757 656.643,665.678 666.679,674.264 675.783,663.61 678.489,665.927 		"/>
	</g>
	<g>
		<path style="fill:#FFFFFF;" d="M350.972,653.66c3.24-2.733,5.191-6.085,2.086-9.939c-4.308-5.337-11.966,0.705-15.644,3.668
			c-3.905,2.902-12.386,9.613-7.844,15.257c2.96,3.664,6.594,2.031,9.934-0.054c0.693-0.43,1.348-0.903,2.042-1.344l2.481,3.087
			c-0.615,0.372-1.207,0.845-1.827,1.223c-2.412,1.645-4.209,2.894-7.213,3.129c-3.166,0.149-5.836-0.88-7.993-3.549
			c-6.899-8.566,1.134-15.532,7.778-20.876c6.272-5.052,14.877-10.46,21.247-2.563c4.248,5.273,2.526,11.182-2.566,15.038
			L350.972,653.66z"/>
	</g>
	<g>
		<path style="fill:#FFFFFF;" d="M361.789,674.482c-6.265,7.678-11.447,15.826-3.429,22.505c8.018,6.681,15.137,0.144,21.517-7.447
			c5.28-6.271,10.448-14.484,2.425-21.161C374.139,661.577,367.026,668.194,361.789,674.482z M376.665,686.994
			c-6.654,7.918-10.961,11.457-16.015,7.249c-5.052-4.209-2.352-9.096,4.218-17.07c5.062-6.14,10.314-10.066,15.003-6.17
			C384.708,675.022,381.798,680.907,376.665,686.994z"/>
	</g>
	<g>
		<path style="fill:#FFFFFF;" d="M420.453,693.648l3.51,1.823l-16.41,31.738l-5.75-2.975l4.237-29.982
			c0.235-1.703,0.595-3.339,1.288-5.392l-0.089-0.057c-0.784,1.639-1.597,3.305-2.432,4.923l-13.074,25.299l-3.523-1.809
			l16.413-31.742l5.717,2.945l-4.424,30.654c-0.119,1.162-0.344,2.341-0.693,4.04l0.089,0.047c0.544-1.168,1.138-2.418,1.748-3.604
			L420.453,693.648z"/>
	</g>
	<g>
		<polygon style="fill:#FFFFFF;" points="430.626,735.944 440.441,701.581 456.56,706.18 455.583,709.62 443.255,706.103 
			440.041,717.372 451.495,720.647 450.511,724.079 439.057,720.811 434.431,737.031 		"/>
	</g>
	<g>
		<polygon style="fill:#FFFFFF;" points="467.877,744.454 471.538,708.904 489.309,710.727 488.943,714.284 475.105,712.857 
			473.899,724.621 486.884,725.947 486.518,729.507 473.533,728.171 472.182,741.293 486.115,742.732 485.749,746.292 		"/>
	</g>
	<g>
		<path style="fill:#FFFFFF;" d="M512.18,730.669l6.889-0.534c4.652-0.353,6.321,2.566,6.6,6.126
			c0.178,2.386,0.907,6.766,1.938,8.986l4.602-0.366l-0.061-0.814c-0.948,0.081-1.358-1.457-1.558-2.116
			c-0.578-2.637-1.018-5.226-1.368-7.876c-0.946-4.699-2.197-6.084-6.839-6.161l-0.01-0.087c4.094-0.893,6.42-4.088,6.241-8.28
			c-0.409-8.239-5.313-9.811-12.77-9.227l-9.156,0.715l2.768,35.614l3.943-0.305L512.18,730.669z M510.904,714.284l5.559-0.429
			c2.657-0.208,7.47-0.437,8.039,5.683c0.581,6.214-4.522,6.892-6.369,7.094l-6.231,0.484L510.904,714.284z"/>
	</g>
	<g>
		<polygon style="fill:#FFFFFF;" points="555.234,740.444 545.537,706.049 562.741,701.205 563.709,704.642 550.321,708.421 
			553.524,719.787 566.088,716.253 567.054,719.686 554.496,723.226 558.069,735.933 571.558,732.134 572.516,735.574 		"/>
	</g>
	<g>
		<path style="fill:#FFFFFF;" d="M594.14,686.95l3.508-1.833l16.511,31.694l-5.75,2.987l-22.074-20.72
			c-1.259-1.176-2.389-2.419-3.676-4.165l-0.079,0.043c0.879,1.586,1.777,3.207,2.616,4.824l13.161,25.261l-3.518,1.831
			l-16.502-31.694l5.711-2.966l22.515,21.252c0.879,0.78,1.707,1.636,2.906,2.892l0.081-0.047c-0.638-1.108-1.317-2.314-1.938-3.503
			L594.14,686.95z"/>
	</g>
	<g>
		<path style="fill:#FFFFFF;" d="M631.633,673.32c-2.764-3.231-6.121-5.163-9.953-2.033c-5.323,4.339,0.776,11.971,3.761,15.632
			c2.926,3.874,9.684,12.321,15.298,7.742c3.654-2.989,1.989-6.607-0.111-9.929c-0.437-0.695-0.917-1.354-1.358-2.041l3.067-2.496
			c0.39,0.612,0.857,1.196,1.245,1.821c1.65,2.397,2.926,4.188,3.154,7.184c0.192,3.175-0.825,5.845-3.482,8.017
			c-8.526,6.964-15.535-1.033-20.926-7.645c-5.092-6.241-10.555-14.815-2.698-21.231c5.254-4.282,11.172-2.589,15.058,2.473
			L631.633,673.32z"/>
	</g>
	<g>
		<polygon style="fill:#FFFFFF;" points="666.827,673.905 639.67,650.674 651.282,637.098 654,639.428 644.951,649.993 
			653.939,657.671 662.413,647.752 665.141,650.073 656.653,659.995 666.689,668.577 675.783,657.922 678.499,660.24 		"/>
	</g>
	<g>
		<path style="fill:#FFFFFF;" d="M471.084,252.331l5.609-1.463l-0.03,57.485l-9.211,2.392l-14.177-42.293
			c-0.81-2.407-1.421-4.854-1.891-8.182l-0.134,0.044c0.064,2.891,0.134,5.866,0.134,8.777l-0.03,45.842l-5.623,1.459l0.037-57.495
			l9.136-2.371l14.387,43.328c0.608,1.592,1.078,3.313,1.756,5.819l0.131-0.033c-0.06-2.052-0.124-4.259-0.124-6.41L471.084,252.331
			z"/>
	</g>
	<g>
		<path style="fill:#FFFFFF;" d="M503.974,306.98c9.846,0.21,15.298-5.854,14.948-17.157c-0.252-6.985-2.439-12.396-9.217-13.145
			l-0.01-0.144c5.962-2.427,7.698-6.425,7.34-12.715c-0.491-8.492-4.126-14.322-13.4-13.783l-14.621,0.36l1.434,56.925
			L503.974,306.98z M494.824,255.955l4.988-0.135c8.605-0.374,10.98,1.628,11.148,8.687c0.293,8.721-3.701,10.194-10.61,9.984
			l-5.052,0.121L494.824,255.955z M495.97,301.489l-0.53-21.178l5.052-0.129c5.807-0.145,12.346-1.068,12.558,10.158
			c0.188,7.434-1.978,10.838-8.128,10.918L495.97,301.489z"/>
	</g>
	<g>
		<path style="fill:#FFFFFF;" d="M524.84,306.066l5.781,2.187l3.725-16.408l14.896,5.611l3.457,19.124l5.79,2.172l-12.38-66.5
			l-6.919-2.612L524.84,306.066z M548.144,290.856l-12.462-4.688l6.711-30.368l0.121,0.045L548.144,290.856z"/>
	</g>
	<g>
		<path style="fill:#231F20;" d="M326.185,417.946v49.504l-14.796,6.442v-29.286l-16.464,8.02v56.081l12.655-4.232v-6.04
			l9.799-4.226v29.861l-9.799,4.222v-9.731l-12.655,4.25v68.057l16.464-7.756v-31.987l14.796-6.069v45.694
			c-11.222,3.349-45.776,21.407-52.977,27.046v-15.155l8.322-4.884V459.852l-8.116,4.672v-18.253
			C295.03,429.978,322.186,419.234,326.185,417.946z"/>
	</g>
	<g>
		<path style="fill:#231F20;" d="M531.789,559.709v-15.625l8.316,0.853v-139.83l-8.104-0.834v-15.335l50.809,5.256v55.209
			l-12.303-7.504v-33.653l-16.933-1.746v66.993l13.01,1.349v-5.471l9.794,1.007v33.059l-9.794-1.015v-10.003l-13.01-1.343v55.246
			l16.933,1.761v-21.205l12.303-3.926v43.924C578.706,564.821,531.789,559.709,531.789,559.709z"/>
	</g>
	<g>
		<path style="fill:#231F20;" d="M519.149,388.642v46.972h-9.804v-32.57h-10.97v139.674h9.002v15.787c0,0-12.397-0.994-31.446,0
			v-15.787h8.904V403.045h-10.977v32.57h-9.801v-46.538C464.057,389.076,502.577,387.374,519.149,388.642z"/>
	</g>
	<g>
		<path style="fill:#231F20;" d="M624.546,402.546l-28.654-5.737v16.01l4.97,1.324v139.037l-5.39-1.424v17.628l25.809,6.835v-18.437
			l-7.799-2.069v-53.776l5.412,1.447c2.595,0.652,7.607,2.906,7.607,9.254c0,6.352,0,64.76,0,64.76l25,8.31v-18.23l-9.724-4.258
			c0,0,0-39.215,0-51.886c0-12.682-10.284-17.56-10.284-17.56l4.104-3.11c5.481-4.175,9.906-14.944,9.906-39.85
			C645.502,404.054,628.858,403.698,624.546,402.546z M629.588,447.558c0,27.698-6.651,31.124-11.272,29.881l-3.356-0.869v-58.907
			l6.929,1.835C624.526,420.187,629.588,421.97,629.588,447.558z"/>
	</g>
	<g>
		<polygon style="fill:#231F20;" points="675.594,594.987 653.509,585.774 653.509,567.356 663.543,571.189 663.543,433.149 
			654.057,428.96 654.057,412.51 677.153,421.245 709.249,563.561 709.249,453.859 701.572,449.221 701.572,431.989 
			729.887,448.163 729.887,466.126 721.393,460.124 721.393,618.882 709.781,612.168 675.594,468.343 		"/>
	</g>
	<g>
		<path style="fill:#231F20;" d="M356.937,508.633l7.018-65.623l7.02,62.549L356.937,508.633z M348.441,409.554v19.726l6.669-2.476
			l-19.055,146.095l-6.79,2.64v13.738c0,0,23.494-9.052,27.708-9.808V565.28l-8.093,2.722l5.583-43.855l18.754-4.117l5.437,38.456
			l-7.603,2.247v14.282c0,0,24.078-6.449,27.128-6.526v-15.031l-6.185,1.31L371.494,421.47l6.634-1.977v-18.185
			C378.128,401.308,359.104,405.836,348.441,409.554z"/>
	</g>
	<g>
		<path style="fill:#231F20;" d="M432.413,408.466c7.004-0.808,6.671,8.008,6.671,8.008v23.621l15.142-1.327v-23.292
			c0-22.066-5.603-25.62-9.526-24.832l-21.762,2.521c-9.874,0.799-18.4,5.657-18.4,27.721v30.019c0,6.18,2.162,10.6,5.192,13.63
			c3.024,3.012,24.646,33.72,24.646,33.72s3.889,3.366,3.889,10.544c0,0,0,15.138,0,26.955c0,11.8-6.664,12.505-6.664,12.505
			l-3.476,0.222c-7.218,0.839-6.119-12.315-6.119-12.315V520.95l-14.546,1.233v15.565c0,22.072,5.605,27.237,12.505,26.448
			l21.753-2.895c6.906-0.8,12.509-6.893,12.509-28.961v-27.375c0-13.322-6.436-19.454-6.436-19.454l-23.354-34.117
			c-3.47-3.943-3.154-8.159-3.154-12.045c0,0,0-8.817,0-20.015c0-11.207,6.12-10.534,6.12-10.534L432.413,408.466z"/>
	</g>
	<g>
		<path style="fill:#FFFFFF;" d="M322.031,413.508v49.502l-14.795,6.453v-29.297l-16.464,8.025v56.086l12.65-4.235v-6.04
			l9.799-4.222v29.85l-9.799,4.226v-9.731l-12.65,4.248v68.059l16.464-7.753V546.69l14.795-6.066v45.694
			c-11.222,3.349-45.778,21.399-52.976,27.043v-15.16l8.321-4.88V455.411l-8.117,4.672v-18.245
			C290.876,425.54,318.033,414.795,322.031,413.508z"/>
	</g>
	<g>
		<path style="fill:#FFFFFF;" d="M527.638,555.271v-15.625l8.316,0.853v-139.83l-8.108-0.833v-15.332l50.809,5.251v55.214
			l-12.299-7.507v-33.653l-16.933-1.746v66.993l12.999,1.347v-5.468l9.805,1.011v33.058l-9.805-1.018v-10.003l-12.999-1.34v55.25
			l16.933,1.756v-21.201l12.299-3.937v43.928C574.551,560.384,527.638,555.271,527.638,555.271z"/>
	</g>
	<g>
		<path style="fill:#FFFFFF;" d="M514.995,384.204v46.976h-9.805v-32.573h-10.973v139.676h9.009v15.786c0,0-12.398-0.994-31.45,0
			v-15.786h8.908V398.607H469.7v32.573h-9.794v-46.543C459.906,384.638,498.426,382.936,514.995,384.204z"/>
	</g>
	<g>
		<path style="fill:#FFFFFF;" d="M620.391,398.107l-28.656-5.735v16.01l4.971,1.327v139.033l-5.39-1.417v17.628l25.799,6.827
			v-18.437l-7.786-2.065v-53.783l5.412,1.454c2.593,0.656,7.608,2.906,7.608,9.251c0,6.348,0,64.759,0,64.759l25,8.31v-18.232
			l-9.724-4.256c0,0,0-39.215,0-51.884c0-12.687-10.284-17.557-10.284-17.557l4.104-3.117c5.481-4.172,9.902-14.94,9.902-39.847
			C641.347,399.615,624.703,399.261,620.391,398.107z M625.433,443.121c0,27.697-6.648,31.12-11.274,29.878l-3.355-0.867v-58.903
			l6.93,1.832C620.37,415.754,625.433,417.531,625.433,443.121z"/>
	</g>
	<g>
		<polygon style="fill:#FFFFFF;" points="671.44,590.549 649.354,581.334 649.354,562.922 659.39,566.752 659.39,428.715 
			649.904,424.52 649.904,408.071 672.997,416.808 705.098,559.131 705.098,449.422 697.421,444.784 697.421,427.556 
			725.735,443.726 725.735,461.689 717.238,455.687 717.238,614.442 705.626,607.733 671.44,463.909 		"/>
	</g>
	<g>
		<path style="fill:#FFFFFF;" d="M352.784,504.195l7.018-65.622l7.015,62.546L352.784,504.195z M344.287,405.117v19.725l6.67-2.479
			l-19.055,146.102l-6.791,2.64v13.735c0,0,23.494-9.053,27.703-9.811V560.84l-8.088,2.72l5.583-43.85l18.755-4.118l5.436,38.456
			l-7.603,2.245v14.284c0,0,24.077-6.445,27.128-6.526v-15.027l-6.185,1.303l-20.497-133.295l6.633-1.977v-18.187
			C373.975,396.869,354.95,401.397,344.287,405.117z"/>
	</g>
	<g>
		<path style="fill:#FFFFFF;" d="M428.261,404.029c7.003-0.809,6.667,8.008,6.667,8.008v23.621l15.135-1.327v-23.294
			c0-22.064-5.599-25.62-9.519-24.825l-21.761,2.52c-9.874,0.794-18.4,5.656-18.4,27.716v30.018c0,6.184,2.161,10.598,5.191,13.627
			c3.025,3.017,24.648,33.723,24.648,33.723s3.886,3.369,3.886,10.544c0,0,0,15.135,0,26.952c0,11.802-6.667,12.504-6.667,12.504
			l-3.47,0.226c-7.22,0.839-6.122-12.311-6.122-12.311v-15.216l-14.545,1.229v15.566c0,22.068,5.606,27.236,12.505,26.448
			l21.756-2.896c6.899-0.799,12.498-6.896,12.498-28.96v-27.375c0-13.322-6.429-19.455-6.429-19.455l-23.358-34.117
			c-3.465-3.947-3.156-8.158-3.156-12.041c0,0,0-8.82,0-20.019c0-11.207,6.125-10.534,6.125-10.534L428.261,404.029z"/>
	</g>
</g>
</svg>
