<?xml version="1.0" encoding="UTF-8"?>
<svg xmlns="http://www.w3.org/2000/svg" xmlns:xlink="http://www.w3.org/1999/xlink" version="1.1" id="Layer_1" x="0px" y="0px" viewBox="0 0 568 601.3" style="enable-background:new 0 0 568 601.3;" xml:space="preserve">
<style type="text/css">
	.st0{stroke:#000000;stroke-width:0.1488;}
	.st1{fill:#F9A01B;}
	.st2{fill:#98002E;}
	.st3{fill:#FFFFFF;stroke:#000000;stroke-width:0.1488;}
	.st4{fill:#FFFFFF;}
</style>
<path class="st0" d="M547.2,198.5c-21.2-23.4-68.1-42.3-128.4-53.9c0.2-6.9,4.4-9.8,12-15c3.9-2.8,8.3-5.9,12.7-10.1  c19.5-18.5-3.4-46.8-4.3-48.1l-12.6-15.3l3,19.6c2.1,13.5-2.8,18.2-17.5,28.4c-1.8,1.4-3.5,2.7-4.8,4.2c0.6-8.9,1-19-2-31.5  c-3.1-12.6-9.2-17.6-9.2-17.6l-1.6,18.2c0,0.1-1.5,14.2-20.2,31.3c1.7-1.9,3.1-3.7,4.5-5.7c9.2-13.4,6.5-28.7,3.4-46.4l-0.6-3.7  c-3.2-18.4,1.8-29.9,4.9-31.8c3.1-3.8,9.2-10,9.2-10s-3.2-1.5-12.3-0.3c-11.7,1.6-31.5,8.8-31,24.7c0.2,7.2,2.5,13.8,4.5,19.8  c2.2,6.3,4.3,12.4,2.4,15.4c-1.4,2.4-5.8,4.4-12.6,5.6c-27.8,5.1-49,18-59.9,36.6c-3.7,6.1-5.9,12.6-7.2,19.5  c-68.8,0.2-133.9,8.8-184.4,24.4c-56.6,17.5-87.8,41.4-90.3,69c-1.3,14.6,5.3,35.5,41.6,55.6l-0.3,0.3l10.3,4.8c0,0,0,0,0,0l5.4,2.6  l0.1,0c16.8,7.6,36.4,14,58.3,19.3c-7.9,4.5-15,9.6-21.5,15.2c-35.2,28.9-55.5,71.8-55.5,117.5c0,40.6,15.9,78.7,44.5,107.5  c28.8,28.7,67,44.6,107.6,44.6c71.9,0,134.6-51,149-121.3c12.3-36.7,10.9-76.2,10.3-91.1c-1.2-33.8,15.4-52.4,25.9-60.9  c48.1-6,90.6-16.6,122.3-30.6l0,0l5.1-2.4c0,0,0.1,0,0.1,0l11-5.2l-0.3-0.3c25.4-14.2,39.6-31,41.2-48.7  C561.4,220.7,557,209.3,547.2,198.5z M497.8,228.1c4.4,4.8,4.1,7.8,4,8.8c-0.5,5.4-7.3,12.1-18.9,18.1l0,0  c-24.2,12.6-65.8,22.4-115.3,27.5c2.2-1.6,4.6-2.8,7.1-3.8l0.8-0.4c14.2-5.7,30.3-12.3,31.1-35.8c0.1-3.7,0.3-15.2,2.4-19.4  c2.7-5.2,9.4-13.3,15.4-15.6c0.1,0-10-2-10-2c-0.5,0-1.1,0-1.5-0.2c3.3-2.3,5.7-5.4,7.5-8.3C460.7,205.5,487.7,216.9,497.8,228.1z   M63.5,233.8c1.8-19.4,71.6-45,184.7-49c-10.5,7.9-22.9,21.6-25.9,43.7l-1.2,8.4c-0.7,5.2-1.7,10.4-3.6,15.7  c-4.4,11.3-16.6,20.9-29.8,27.9c-45.6-5.7-83.6-15.3-105.8-27.3h0C69.8,246.6,63,239.6,63.5,233.8z"></path>
<g>
	<path class="st1" d="M413.4,143.5c1.1-13.5,13.9-16.2,26.4-27.9c16-15.2-4.9-40.7-4.9-40.7c2.6,17.1-5.3,23.6-19.8,33.6   c-4.6,3.2-7.9,7.6-8.4,13.4c-0.5,6.3-0.9,13.1-2.3,20C407.5,142.5,410.5,143,413.4,143.5z"></path>
	<path class="st1" d="M369.3,119.8c-3.9,2.9-7.5,5.9-10.8,8.8c-2.5,2.3-4.8,4.6-6.9,6.8c14.1,1.3,27.8,2.9,41,4.8   c8.5-15.5,12.4-32.8,7.5-62.4C400,77.8,398.8,97.9,369.3,119.8z"></path>
	<path class="st1" d="M290.5,132.5c16.2,0.2,31.9,0.8,47.4,2c0.5-0.6,1-1.2,1.6-1.6c10.3-11.1,26.3-20.5,34.9-33   c8.5-12.3,5.1-27.6,1.9-46c-5.5-31.8,7.9-37.7,7.9-37.7s-26.8,3.7-26.4,19.2c0.7,20.9,22.2,40.5-10.2,46.3   c-35.5,6.5-57.6,25.7-62.4,50.8C287,132.5,288.8,132.5,290.5,132.5z"></path>
</g>
<path class="st2" d="M49.4,451.8c4,20,15.4,44,38.1,60c6.9,4.9,14.4,8.7,22.4,11.8c-4.9-8.4-10.7-16.8-16.5-25.5  c-10.9-15.9-22.1-32.5-29.3-50.5c-7.3-18.5-9.4-37.7-6.2-57.1l0,0c-5.8,15.8-9,32.8-9,50.6C49,444.8,49.2,448.2,49.4,451.8  L49.4,451.8z"></path>
<path class="st2" d="M73.9,443.8c6.7,16.8,17.6,32.9,28.2,48.5c8.1,12.1,16.1,23.8,22.2,35.7c6.7,1.6,13.6,2.6,20.6,3  c-7.2-10.4-13.6-22.3-19.1-35.8c-21.1-52.5-18-117.4,8.2-154.9c13.5-19.4,29.7-32.6,50.5-43.9c17.9-9.9,29.1-12.6,40.5-19.4  c12.4-7.5,19.1-19.8,10.9-47.5c-2.4-8.1-2.8-14.5-2.3-19.4c-2.8,5.4-5.1,11.8-6.1,19.2l0.1-0.1c-1.3,7.8-1.8,16.5-5.2,25.3  c-10.9,28.7-64,44.7-71,46.7c-20.2,6.1-36.3,15.3-48.9,26.5C66.3,360.1,59.9,408.5,73.9,443.8z"></path>
<g>
	<path class="st2" d="M295.3,184.4c0.6,1.7,1,3.5,1.3,5.2c1.3,10-1.7,18.2-14,20.2c-12.7,2-17-9-18-17.9c-0.1-3.2,0.1-5.6,0.4-7.4   c-2.1,0-4.2,0-6.3,0.1c-4.1,2.3-9.4,6-14.5,11.2c-2.5,5.3-5.5,12.8-0.9,30.5c8.3,31.1,4.8,49.8-20.2,60.5   c-31.7,13.8-52.1,21.7-79.4,56c-12.9,16.3-20,43.3-21.2,70.5c-1.1,26.4,4.3,54.6,13.6,77.6c6.2,15.5,13.5,29,22,40.3   c8.5-0.3,17.2-1.3,25.8-3.2c-9.5-11.1-14.9-24.6-15.9-39.7c-3.2-50.3,23.9-71.5,65.6-105l18.7-15.7   c74.5-63.2,52.8-127.5,60.9-182.4C307.4,184.8,301.4,184.5,295.3,184.4z"></path>
</g>
<g>
	<path class="st2" d="M325.2,185.6c-2.3,10.8-3.4,22.3-4.1,34.2c-2.9,47.9-1.5,102-62.1,155.8l-18.2,14.8   c-40.6,32.6-63.7,52.9-62.2,97.1c0.5,14.6,6.7,27.3,17,37.4c11.3-3.5,22.5-8.1,33.2-14.3c52.8-29.9,85.9-74.7,98.6-132   c8-36.2,7.8-65.8,7.7-89.4c-0.1-12.1,1.5-35.5,1.5-35.5c1.7-14.9,4.1-35.7,21.3-63c0.6-0.9,1.1-1.7,1.8-2.6   C348.6,187,337.1,186,325.2,185.6z"></path>
</g>
<path class="st2" d="M342.9,339.4c0-0.1,0-0.1,0-0.3C342.9,339.3,342.9,339.4,342.9,339.4c-1.7,8.6-2.1,18.3-3.2,27.9  c-0.5,3.7-1,7.2-1.5,10.6c-0.3,1-0.5,2-0.6,3c-13.3,60.3-47.7,107.3-103.1,138.8c-9.6,5.3-19.2,9.7-28.9,13.2  c16.2,10.8,35.2,14.1,48.2,12.1c49.7-7.5,74-39.8,85.7-74.6c12-35.5,10.6-73.6,10.1-89.3c-1.9-52.6,38.8-72,38.8-72  C356.7,307.4,346.3,321.3,342.9,339.4z"></path>
<path class="st2" d="M309.7,533.2c-20.4,17-42.3,20.8-52.2,22.2c-19.6,3-42.8-1.7-63.3-17.8c-0.3-0.2-0.6-0.5-1-0.7  c-8.8,2.3-17.6,3.8-26.4,4.5c20.1,21.6,46.5,33.8,81.9,36.2c0.2,0.2,0.3,0.2,0.5,0.2c0,0,0,0,0.1,0c24.1-9.5,45.1-25.2,61-45.2  C310.1,532.8,309.9,533,309.7,533.2z"></path>
<path class="st2" d="M124.6,569.4c0.3-11-2.7-21.9-7.8-32.9c-12.2-3.5-24.1-8.7-35.5-15.7c-6.5-3.8-12.3-9.9-17.5-15.4  c0-0.1,0-0.1-0.1-0.1C76.9,532.3,98.3,554.8,124.6,569.4L124.6,569.4z"></path>
<path class="st2" d="M226,584.5c-19.8-4.5-36.8-11.6-51.7-22.9c-7.6-5.8-14.6-12.3-20.8-19.7c-8-0.1-16-0.9-23.9-2.4  c4.4,11.4,6.5,22.9,5.1,35l0,0c18.5,8.5,39.2,13.3,60.9,13.3c10.5,0,20.7-1.1,30.6-3.3C226.2,584.6,226.1,584.6,226,584.5z"></path>
<g>
	<path class="st2" d="M396.4,224.2c-3.4,11.4-14.6,10-17.9,3.9c-5.2-9.7-3.2-17.3,2.2-22.4c5.4-5.1,14.2-8,22.8-11.8c0,0,0,0,0.1,0   c-9.9-1.7-20.4-3.3-31.6-4.5c-0.1,0.2-0.3,0.3-0.4,0.5c-1,1.1-2,2.2-2.9,3.4C351,220,348.8,239.6,347,254.8l-0.6,4.7   c-1,7.9-0.9,17.8-0.8,29.5c0,1.6,0,3.3,0,5c-0.1,4-0.3,8.1-0.5,11.9c0.2,0,0.2,0,0.3,0c0.2-1.6,0.2-2.2,0.2-1.4   c5-16,14.2-25.6,27.1-30.9c14.1-5.7,27.9-10.9,28.6-31.3c0.3-8.4,0.9-16.9,2.9-21.4c3.5-7.9,9.8-9.9,9.8-9.9   C407.2,210.4,399.7,213.3,396.4,224.2z"></path>
</g>
<path class="st3" d="M290.5,140.9c-148.8-1.6-272.9,36.9-277.2,85.6c-1.7,19.5,15.8,37.6,47,52.6c19.2,9.2,43.7,17.2,72,23.6  c5.6-2.6,11.5-4.8,17.8-6.7c5-1.5,14.1-4.5,24.1-8.8c-41.7-6-75.4-15.4-96.2-26.6c-15.3-8.3-23.5-17.6-22.7-27.5  c2.9-32.7,107.1-58.3,232.7-57.1c125.6,1.3,225.1,28.9,222.1,61.6c-0.8,9-9.1,17.3-23.3,24.7c-26.2,13.9-72.6,24.4-128.8,29.4  c-2,2.7-3.7,5.6-5.1,8.9c25.6-9.6,55,4.7,55,4.7s2,0.8,3.4,1.6c37.3-6.5,69.4-16,93.5-27.4c28.4-13.6,45.7-29.9,47.3-47.6  C556.3,183.1,439.3,142.3,290.5,140.9z"></path>
<path class="st4" d="M290.5,140.9c-148.8-1.6-272.9,36.9-277.2,85.6c-1.7,19.5,15.8,37.6,47,52.6c19.2,9.2,43.7,17.2,72,23.6  c5.6-2.6,11.5-4.8,17.8-6.7c5-1.5,14.1-4.5,24.1-8.8c-41.7-6-75.4-15.4-96.2-26.6c-15.3-8.3-23.5-17.6-22.7-27.5  c2.9-32.7,107.1-58.3,232.7-57.1c125.6,1.3,225.1,28.9,222.1,61.6c-0.8,9-9.1,17.3-23.3,24.7c-26.2,13.9-72.6,24.4-128.8,29.4  c-2,2.7-3.7,5.6-5.1,8.9c25.6-9.6,55,4.7,55,4.7s2,0.8,3.4,1.6c37.3-6.5,69.4-16,93.5-27.4c28.4-13.6,45.7-29.9,47.3-47.6  C556.3,183.1,439.3,142.3,290.5,140.9z"></path>
</svg>
